<svg version="1" xmlns="http://www.w3.org/2000/svg" width="682.667" height="682.667" viewBox="0 0 512.000000 512.000000"><path d="M31.7 204.7c-1.2 1.1-.8 13.8.5 15.1.7.7 3 1.2 5.3 1.2s4.6-.5 5.3-1.2c1.2-1.2 1.7-11.4.6-14.2-.5-1.2-2-1.6-5.8-1.6-2.9 0-5.6.3-5.9.7zM370.2 205.2c-.8.8-1.2 6.5-1.2 19V242l-4.6-3.5c-6.9-5.3-11-6.7-19.4-6.9-6.3-.1-8.4.4-13.1 2.7-6.9 3.3-13.2 9.9-16.7 17.5-2.4 5-2.7 6.9-2.7 16.2 0 9.7.2 11 3.1 17 3.7 7.9 9.7 14 17.1 17.6 10.4 5.1 24 3.5 33.9-4.1 1.8-1.4 3.5-2.5 3.7-2.5.3 0 .7 1.3 1 3 .7 3.5 5 6 10.2 6h3.5v-5.5c0-4.2-.3-5.5-1.5-5.5-1.3 0-1.5-5.5-1.5-43.8 0-32.7-.3-44.1-1.2-45-.7-.7-3-1.2-5.3-1.2s-4.6.5-5.3 1.2zm-13.3 40.3c2.7 1.3 6.5 4.3 8.5 6.6l3.6 4.3V282l-3.6 3.9c-11.5 12.9-30.2 10.3-38.1-5.3-6.3-12.4-1.3-29.3 10.6-35.6 5.2-2.8 13-2.6 19 .5zM199 207.1c-27.9 4.6-45.2 37.3-34.8 65.9 9.4 26 33.8 38.3 58.6 29.6 6-2.1 9.8-4.3 13.9-7.9 3.4-3 9.3-11.1 9.3-12.9 0-1-7.4-4.8-9.3-4.8-.8 0-2.6 1.8-4.1 4-3.4 5.2-9.6 9.6-15.9 11.5-17.6 5.2-34.8-5-41.2-24.4-2.8-8.5-1.8-21.7 2.2-30.3 3.6-7.8 9.6-14.1 16.2-17.1 6.6-3.1 19.7-3 26.3.2 4.6 2.2 12.8 10 12.8 12.1 0 .5.7 1 1.6 1 2.3 0 9.4-4.2 9.4-5.5 0-1.6-5-8.3-9.1-12.2-4.8-4.5-12.4-8-19.9-9.2-7.3-1.2-8.3-1.2-16 0zM273.2 208.2c-1.7 1.7-1.7 93.9 0 95.6 1.6 1.6 9 1.6 10.6 0 1.7-1.7 1.7-93.9 0-95.6-.7-.7-3-1.2-5.3-1.2s-4.6.5-5.3 1.2zM106.3 232c-5 1.1-11.6 4.3-16.5 8.2l-3.8 3v-4.4c0-5.3-1.3-6.8-6-6.8-2 0-4.1.5-4.8 1.2-1.7 1.7-1.7 68.9 0 70.6.7.7 3 1.2 5.3 1.2s4.6-.5 5.3-1.2c.9-.9 1.2-7.3 1.2-22.8v-21.7l3.1-4.6c7.1-10.7 22.4-15.2 28.7-8.4 3.8 4.2 4.5 9.3 5.1 34.2l.6 24 4.3.3c7.3.5 7.2.8 7.2-24.7 0-22.9-.9-32-3.7-37.6-2-4-5.2-7.4-8.5-9.1-3.5-1.8-12.2-2.5-17.5-1.4zM437.4 232c-10.2 2.1-20.3 10-25.2 20-2.4 5-2.7 6.6-2.7 16.5 0 13.2 1.6 17.6 9.5 25.9 7.3 7.8 14.9 11 26 11 7.4 0 9.3-.4 15-3 7-3.3 12.1-7.7 14.6-12.7 1.5-2.8 1.5-3.2 0-4.3-2.5-1.8-9-2.8-9.4-1.4-.9 2.6-5.6 7-9.5 8.9-5.1 2.5-14.1 2.8-19.1.7-4.9-2.1-10.1-7.1-12.5-12.1-3.7-8-5.6-7.4 27.2-7.7l29.2-.3-.2-7.5c-.2-6.3-.8-8.6-3.8-14.7-7.5-15.2-22.5-22.6-39.1-19.3zm16.4 11.6c7 2.9 14.2 11.9 14.2 17.9v2.5l-23.2-.2-23.3-.3.4-2.5c.9-6.4 7.5-14.6 14.1-17.4 4.6-2 13.1-2 17.8 0zM32.2 233.2c-1.7 1.7-1.7 68.9 0 70.6.7.7 3 1.2 5.3 1.2s4.6-.5 5.3-1.2c1.7-1.7 1.7-68.9 0-70.6-.7-.7-3-1.2-5.3-1.2s-4.6.5-5.3 1.2z"/></svg>